<?xml version="1.0" ?><svg enable-background="new 0 0 24 24" id="Layer_1" version="1.1" viewBox="0 0 24 24" xml:space="preserve" xmlns="http://www.w3.org/2000/svg" xmlns:xlink="http://www.w3.org/1999/xlink"><path d="M17,3.1962891V0.5C17,0.2236328,16.7763672,0,16.5,0h-3  c-0.1923828,0-0.3681641,0.1103516-0.4511719,0.2841797l-0.8193359,1.7133789c-0.019043,0-0.0385742,0.0004883-0.0571289,0.0004883  L12,2C5.9345703,2,1,6.9345703,1,13c0,1.8789063,0.4882813,3.7402344,1.4116211,5.3828125  c0.0913086,0.1621094,0.269043,0.2592773,0.4526367,0.2543945c0.1865234-0.0058594,0.3540039-0.1152344,0.4345703-0.2836914  l1.1269531-2.3564453c0.0566406-0.1186523,0.0644531-0.2553711,0.0214844-0.3793945C4.1503906,14.7612305,4,13.8803711,4,13  c0-3.9750977,2.9018555-7.2963867,6.75-7.9082031L2.0488281,23.2841797  c-0.0742188,0.1547852-0.0634766,0.3369141,0.0283203,0.4824219C2.168457,23.9121094,2.328125,24,2.5,24h3  c0.2001953,0,0.3808594-0.1191406,0.4594727-0.3032227L8.8295898,17H13.5v0.5c0,0.1923828,0.1103516,0.3671875,0.2832031,0.4506836  c0.1738281,0.0839844,0.3789063,0.0595703,0.5292921-0.0600586l2.499999-2C16.9311523,15.7954102,17,15.6518555,17,15.5  s-0.0688477-0.2954102-0.1875057-0.390625l-2.499999-2c-0.1508741-0.1206055-0.3574171-0.1445313-0.5292921-0.0600586  C13.6103516,13.1328125,13.5,13.3076172,13.5,13.5V14h-3.2265625L13.5,6.8295898V11.5  c0,0.1518555,0.0688477,0.2954102,0.1874952,0.390625l2.499999,2c0.1494198,0.1201172,0.3559628,0.1430664,0.5293026,0.0600586  C16.8896484,13.8671875,17,13.6923828,17,13.5V6.7695313C18.894043,8.2890625,20,10.5571289,20,13  c0,2.5196533-1.1737061,4.7675171-3,6.2350464V17.5c0-0.1923828-0.1103516-0.3671875-0.2832031-0.4506836  c-0.1738281-0.0834961-0.3793945-0.0600586-0.5293026,0.0600586l-2.499999,2  c-0.1655226,0.1328125-0.2294874,0.355957-0.1591749,0.5561523S13.7875977,20,14,20h1.8643799  C14.7178345,20.6355591,13.4011841,21,12,21c-1.0332031,0-2.0458984-0.1987305-3.0097656-0.5908203  c-0.2519531-0.1005859-0.5405273,0.0161133-0.6479492,0.2666016l-0.7880859,1.8393555  C7.5014648,22.6381836,7.5,22.7773438,7.5507813,22.9008789c0.0507813,0.1240234,0.1489258,0.2226563,0.2729492,0.2734375  C9.15625,23.722168,10.5615234,24,12,24c6.0654297,0,11-4.9345703,11-11C23,8.8925781,20.6552734,5.0791016,17,3.1962891z" fill="#303C42"/><g/><g/><g/><g/><g/><g/><g/><g/><g/><g/><g/><g/><g/><g/><g/></svg>