<?xml version="1.0" ?><svg enable-background="new 0 0 24 24" id="Layer_1" version="1.1" viewBox="0 0 24 24" xml:space="preserve" xmlns="http://www.w3.org/2000/svg" xmlns:xlink="http://www.w3.org/1999/xlink"><path d="M23.5004978,0.0002441c-9.616415,0-13.2273312,4.0004883-13.3767481,4.1708984  c-0.1484413,0.1699219-0.1650429,0.4179688-0.04004,0.605957c0.1250019,0.1875,0.3588943,0.2685547,0.5747185,0.1972656  c0.0107431-0.0043945,1.1538334-0.3666992,1.8179102,0.1113281c0.3476629,0.2509766,0.5239363,0.7265625,0.5239363,1.4145508  c0,0.8168945-0.3974686,1.2797852-1.1821537,1.3764648c-1.1821537,0.1459961-2.6108952-0.6103516-2.8330679-1.4975586  c-0.0615244-0.2456055-0.2978573-0.4111328-0.5459099-0.375c-0.250493,0.0307617-0.4389744,0.2436523-0.4389744,0.4960938v0.2929688  c0,0.3222656-0.1254907,0.6254883-0.3535228,0.8535156s-0.531261,0.3535156-0.8535337,0.3535156H6.5001373  c-0.2524467,0-0.4653416,0.1884766-0.4961042,0.4389648C5.9727826,8.6896973,6.1339188,8.9240723,6.3790412,8.9851074  c0.8872256,0.222168,1.6431012,1.6518555,1.4975901,2.8330078c-0.0966816,0.784668-0.5595818,1.1821289-1.3764939,1.1821289  c-0.6865377,0-1.1616454-0.1757813-1.4126272-0.5219727c-0.4003992-0.5522461-0.2172899-1.5019531-0.1127954-1.8212891  c0.0703139-0.2138672-0.0112309-0.4492188-0.199223-0.5732422c-0.1870155-0.1240234-0.4355559-0.1079102-0.6045051,0.0400391  C4.0005727,10.2731934,0,13.8840332,0,23.5002441c0,0.2524414,0.1879923,0.4643555,0.4384858,0.4956055  c0.0205083,0.0029297,0.0415048,0.0039063,0.0620131,0.0039063c0.226079,0,0.4277434-0.1533203,0.4843853-0.3774414  c0.0063478-0.0258789,0.6704243-2.5712891,2.6104069-3.5986328c1.0488503-0.5546875,2.3057129-0.5732422,3.7339656-0.0537109  c0.1259794,0.0463867,0.2666073,0.0390625,0.38868-0.0195313c0.1210966-0.0585938,0.213872-0.1640625,0.2563534-0.2919922  c0.0073242-0.0214844,0.733902-2.1401367,2.7979107-3.0673828c1.513216-0.6796875,3.3736067-0.5546875,5.5313673,0.3686523  c0.1875038,0.0810547,0.4057693,0.0380859,0.5503044-0.105957c0.1445351-0.1445313,0.1865273-0.362793,0.1059589-0.550293  c-0.9218941-2.1518555-1.0473852-4.0087891-0.3730545-5.5205078c0.9179878-2.0585938,3.0513344-2.8012695,3.0728188-2.8085938  c0.1274433-0.043457,0.2329159-0.1362305,0.2910213-0.2573242c0.0581074-0.121582,0.0659199-0.2612305,0.0195332-0.3876953  c-0.5195427-1.4287109-0.5014763-2.6850586,0.0537109-3.7338867c1.0273647-1.9399414,3.5728302-2.6040039,3.5987091-2.6103516  c0.2446346-0.0620117,0.4047947-0.2963867,0.3735428-0.5463867C23.9648628,0.1882324,23.752943,0.0002441,23.5004978,0.0002441z" fill="#303C42"/><g/><g/><g/><g/><g/><g/><g/><g/><g/><g/><g/><g/><g/><g/><g/></svg>