<?xml version="1.0" ?><svg enable-background="new 0 0 24 24" id="Layer_1" version="1.1" viewBox="0 0 24 24" xml:space="preserve" xmlns="http://www.w3.org/2000/svg" xmlns:xlink="http://www.w3.org/1999/xlink"><path d="M19.2900391,3.7850502l2.5864258-2.9559326c0.1669922-0.190918,0.1645508-0.4765625-0.0058594-0.6650391  c-0.1708984-0.1875-0.4555664-0.21875-0.6611328-0.0708008l-3.5169678,2.512146C16.0292358,1.593766,14.085022,1.000016,12,1.000016  c-6.0654297,0-11,4.9345703-11,11c0,3.5380249,1.6859131,6.6824331,4.2890015,8.6959829l-2.1654663,2.4749146  c-0.1689453,0.1933594-0.1640625,0.4838867,0.0117188,0.6713867C3.2333984,23.9463043,3.3662109,24.0000153,3.5,24.0000153  c0.1069336,0,0.2143555-0.0341797,0.3046875-0.1035156l2.9214478-2.2473145  C8.2930908,22.5090485,10.0899658,23.0000153,12,23.0000153c6.0654297,0,11-4.9345703,11-10.999999  C23,8.732316,21.5596924,5.8015294,19.2900391,3.7850502z M3,12.0000162c0-4.9624028,4.0375977-9,9-9  c1.3932495,0,2.708313,0.3275146,3.8868408,0.8951416l-8.6773682,6.1981201  c-0.1767578,0.1259766-0.2519531,0.3525391-0.1855469,0.5595703C7.090332,10.8593912,7.2827148,11.0000162,7.5,11.0000162h3.0297852  l-5.3344727,4.1035156c-0.1699219,0.1308594-0.237793,0.3549805-0.168457,0.5576172  C5.0957031,15.8637857,5.2861328,16.0000153,5.5,16.0000153h3.8979492l-2.7900391,3.1886597  C4.4224243,17.5450592,3,14.9387369,3,12.0000162z M12,21.0000153c-1.2427979,0-2.4274292-0.25354-3.5053711-0.7111816  l8.3100586-6.392333c0.1699219-0.1308594,0.237793-0.3549805,0.168457-0.5576172  C16.9042969,13.1362467,16.7138672,13.0000162,16.5,13.0000162h-2.6191406l4.9394531-4.1157227  c0.1616211-0.1347656,0.2216797-0.3564453,0.1499023-0.5546875C18.8984375,8.1318521,18.7104492,8.0000162,18.5,8.0000162  h-2.8979492l2.3728027-2.7118535C19.8258057,6.9377599,21,9.3315592,21,12.0000162  C21,16.9624176,16.9624023,21.0000153,12,21.0000153z" fill="#303C42"/><g/><g/><g/><g/><g/><g/><g/><g/><g/><g/><g/><g/><g/><g/><g/></svg>