<?xml version="1.0" ?><svg enable-background="new 0 0 24 24" id="Layer_1" version="1.1" viewBox="0 0 24 24" xml:space="preserve" xmlns="http://www.w3.org/2000/svg" xmlns:xlink="http://www.w3.org/1999/xlink"><g><path d="M10.4990234,18H13v-5.5l0.008667-0.0488892c0.0007324-0.0076904-0.0048828-0.0142212-0.0037842-0.0219116   c0.0013428-0.0094604,0.0100708-0.0152588,0.0119629-0.0245361l0.791626-4.4729004l-1.5379639,0.9886475   C12.1884766,8.9736328,12.09375,9,12,9s-0.1884766-0.0263672-0.2705078-0.0795898L9.6800537,7.6029053l0.8131104,4.8135986   L10.4990234,18z" fill="#303C42"/><path d="M23.8779297,1.1723633C23.7832031,1.0629883,23.6445313,1,23.5,1h-3.9316406   C19.0419922,0.8554688,15.7646484,0,12,0S4.9580078,0.8554688,4.4316406,1H0.5   C0.3554688,1,0.2167969,1.0629883,0.1220703,1.1723633S-0.015625,1.4272461,0.0048828,1.5708008l1,7   c0.015625,0.1069336,0.0654297,0.2060547,0.1416016,0.2827148l0.8652344,0.8647461l0.4892578,8.8085938   c0.0068359,0.1308594,0.0654297,0.2539063,0.1630859,0.3422852l5.5,5.0009766C8.2558594,23.9536133,8.3759766,24,8.5,24h6.9980469   c0.1240234,0,0.2441406-0.0463867,0.3359375-0.1298828l5.5019531-5.0009766   c0.0976563-0.0883789,0.15625-0.2114258,0.1630859-0.3422852l0.4892578-8.8085938l0.8652344-0.8647461   c0.0761719-0.0766602,0.1259766-0.1757813,0.1416016-0.2827148l1-7C24.015625,1.4272461,23.9726563,1.2817383,23.8779297,1.1723633   z M21.890625,4.1875c0.1718674,0.2158203,0.1376953,0.5302734-0.0781326,0.703125l-5,4C16.7197266,8.9643555,16.609375,9,16.5,9   c-0.1464844,0-0.2919922-0.0644531-0.390625-0.1875c-0.1718826-0.2158203-0.1376953-0.5302734,0.0781174-0.703125l5-4   C21.4052734,3.9379883,21.7197266,3.9726563,21.890625,4.1875z M16.2001953,10.1000977l4-3   c0.2207031-0.1645508,0.5332031-0.1225586,0.7001953,0.1000977c0.1650391,0.2207031,0.1201172,0.5341797-0.1005859,0.699707l-4,3   C16.7099609,10.9672852,16.6044922,11,16.5,11c-0.1513672,0-0.3017578-0.0688477-0.4003906-0.2001953   C15.9345703,10.5791016,15.9794922,10.265625,16.2001953,10.1000977z M8.03125,2.3266602C8.1035156,2.1303711,8.2910156,2,8.5,2h7   c0.2089844,0,0.3964844,0.1303711,0.46875,0.3266602c0.0732422,0.1962891,0.015625,0.4169922-0.1435547,0.5527344l-3.5,3   C12.2314453,5.9599609,12.1162109,6,12,6s-0.2314453-0.0400391-0.3251953-0.1206055l-3.5-3   C8.015625,2.7436523,7.9580078,2.5229492,8.03125,2.3266602z M4.5,2c0.0458984,0,0.0927734-0.0063477,0.1376953-0.019043   c0.0071411-0.0020142,0.1693115-0.0471191,0.4452515-0.1149902l0.3652954,1.8278809L12,7.9057617l6.5517578-4.2119141   l0.3652954-1.8278809c0.2759399,0.0678711,0.4381104,0.1129761,0.4452515,0.1149902C19.4072266,1.9936523,19.4541016,2,19.5,2   h0.4098511l-0.4196167,2.0981445c-0.0263672,0.1328125-0.1054688,0.2490234-0.2197266,0.3222656l-4.3165283,2.7749023   l-0.8354492,4.6842041l4.791626-0.8712158c0.0253296-0.0049438,0.0490723,0.003479,0.0740967,0.0025635l1.9972534-1.1889648   l-0.0669556,1.2039185L19.5,11.8678589V13.5c0,0.1669922-0.0839844,0.3232422-0.2226563,0.4160156L18,14.7675781v5.7822876   l-1,0.9090576V14.809082l-3.0068359-1.503418L14,18.5c0,0.2763672-0.2236328,0.5-0.5,0.5H10c-0.2763672,0-0.5-0.2236328-0.5-0.5   v-5.1384888L7,14.7900391v6.6700439l-1-0.9093628v-5.7831421l-1.2773438-0.8515625C4.5839844,13.8232422,4.5,13.6669922,4.5,13.5   v-1.6148682l-1.4080811-0.7432251L3.0270996,9.9765625l1.9627075,1.0359497   c0.0361938-0.0008545,0.0719604-0.0098267,0.1078491-0.0027466l4.2949219,0.8590088L8.5422363,6.87146L4.7294922,4.4204102   C4.6152344,4.347168,4.5361328,4.230957,4.5097656,4.0981445L4.0901489,2H4.5z M7.890625,8.8125   C7.7919922,8.9355469,7.6464844,9,7.5,9C7.3896484,9,7.2802734,8.9643555,7.1874924,8.890625l-5-4   C1.9716797,4.7177734,1.9374927,4.4033203,2.109375,4.1875c0.1728516-0.2158203,0.4873047-0.2490234,0.7031176-0.078125l5,4   C8.0283203,8.2822266,8.0624924,8.5966797,7.890625,8.8125z M7.9003906,10.7998047C7.8017578,10.9311523,7.6513672,11,7.5,11   c-0.1044922,0-0.2099609-0.0327148-0.2998047-0.1000977l-4-3c-0.2207031-0.1655273-0.265625-0.4790039-0.1005859-0.699707   c0.1669922-0.2216797,0.4814453-0.2641602,0.7001953-0.1000977l4,3C8.0205078,10.265625,8.0654297,10.5791016,7.9003906,10.7998047   z M15.3046875,23h-0.6151123l-0.9991455-2H9.8603516l-0.6663818,2H8.6933594l-0.4251709-0.3865967l0.7572021-2.2716064   C9.09375,20.1376953,9.2851563,20,9.5,20H14c0.1894531,0,0.3623047,0.1069336,0.4472656,0.2768555l1.2029419,2.4090576   L15.3046875,23z" fill="#303C42"/></g><g/><g/><g/><g/><g/><g/><g/><g/><g/><g/><g/><g/><g/><g/><g/></svg>