<?xml version="1.0" ?><svg enable-background="new 0 0 24 24" id="Layer_1" version="1.1" viewBox="0 0 24 24" xml:space="preserve" xmlns="http://www.w3.org/2000/svg" xmlns:xlink="http://www.w3.org/1999/xlink"><g><path d="M8.0097656,9.5984936c0.0195313,0.0966778,0.0664063,0.1855421,0.1367188,0.2553654l3.5,3.4999151   C11.7441406,13.4514275,11.8720703,13.5002546,12,13.5002546s0.2558594-0.0488272,0.3535156-0.1464806l3.5-3.4999151   c0.0703125-0.0698233,0.1171875-0.1586876,0.1367188-0.2553654l0.9951172-4.9769301l1-3.999903   c0.0507813-0.2050731-0.0322266-0.4204-0.2089844-0.5375846c-0.1748047-0.1162081-0.4052734-0.1103489-0.5761719,0.0166012   l-3.8671875,2.899832h-2.6660156L6.7998047,0.100677C6.6289063-0.0272496,6.3994141-0.0326206,6.2236328,0.0840758   C6.046875,0.2012605,5.9638672,0.4165873,6.0146484,0.6216604l0.9970703,3.988673L8.0097656,9.5984936z M11.1132813,5.6835494   C11.2080078,5.5678296,11.3505859,5.5004482,11.5,5.5004482h1c0.1494141,0,0.2919922,0.0673814,0.3867188,0.1831012   s0.1328125,0.2680597,0.1035156,0.415029l-0.5,2.499939C12.4433594,8.8319111,12.2382813,9.0003633,12,9.0003633   s-0.4433594-0.1684523-0.4902344-0.4018459l-0.5-2.499939C10.9804688,5.9516091,11.0185547,5.7992692,11.1132813,5.6835494z" fill="#303C42"/><path d="M4.0087891,20.5992031c0.0361328,0.1821251,0.1708984,0.3290939,0.3486328,0.3813381l5.0731812,1.4935551   l-7.020874-9.8722572L4.0087891,20.5992031z" fill="#303C42"/><path d="M19.6416016,20.9795647c0.1777344-0.0522442,0.3125-0.199213,0.3486328-0.3813381l1.598999-7.9948006   l-7.0184937,9.8699379L19.6416016,20.9795647z" fill="#303C42"/><path d="M23.7666016,0.0777283c-0.1748047-0.1103489-0.3984375-0.10156-0.5664063,0.0229487l-3.9355469,2.9511003   l-0.9346313,0.3115768l-0.374939,1.5008793l-0.2738647,1.3716707l1.621521-0.6949296   c0.2519531-0.1098604,0.546875,0.0073242,0.6572266,0.2626891c0.1083984,0.2534118-0.0087891,0.5473499-0.2626953,0.6562343   l-2.2536011,0.9657969l-0.1924438,0.964088l1.0905762-0.3635168c0.2636719-0.0869122,0.5449219,0.05371,0.6328125,0.3159103   c0.0869141,0.2622004-0.0546875,0.5453968-0.3164063,0.632309l-1.6323853,0.5441151l-0.0551147,0.2761774   c-0.0585938,0.2919855-0.2011719,0.5566273-0.4101563,0.7660952l-3.5,3.4999151   C12.7773438,14.3439837,12.4003906,14.5002298,12,14.5002298s-0.7773438-0.1562462-1.0605469-0.4394417l-3.5-3.4999151   c-0.2089844-0.2094679-0.3515625-0.4741096-0.4101563-0.7651186L6.973877,9.5184784l-1.6320801-0.543993   c-0.2617188-0.0869122-0.4033203-0.3701086-0.3164063-0.632309c0.0878906-0.2622004,0.3730469-0.4023342,0.6328125-0.3159103   l1.0899658,0.3633337l-0.192749-0.9642711L4.3027344,6.459898C4.0488281,6.3510137,3.9316406,6.0570755,4.0400391,5.8036637   c0.1103516-0.2553649,0.4052734-0.3730378,0.6572266-0.2626891l1.6203003,0.6943803L6.0341797,4.8178477L5.6702881,3.3634763   L4.7353516,3.0517774L0.7998047,0.100677C0.6328125-0.0248083,0.4082031-0.0335971,0.2333984,0.0777283   C0.0576172,0.1880772-0.03125,0.3951034,0.0097656,0.5987118l1.9274902,9.6400862   c0.0177002,0.0182486,0.0397339,0.0302114,0.0549316,0.0515728l8.9894409,12.6403198l0.0004272,0.0001221l0.6107178,0.8587437   C11.6865234,23.9218769,11.8378906,24,12,24s0.3134766-0.0781231,0.4072266-0.2104435l0.6106567-0.8587437l0.0016479-0.0004883   l8.9882813-12.6399536c0.0150146-0.0208731,0.0367432-0.0325918,0.0541382-0.0504742l1.9282837-9.6411848   C24.03125,0.3955917,23.9423828,0.1880772,23.7666016,0.0777283z M10.9443359,16.2291927   C10.8583984,16.397646,10.6855469,16.5001812,10.5,16.5001812c-0.0273438,0-0.0546875-0.0024414-0.0820313-0.0068359l-3-0.4999866   c-0.1728516-0.0288086-0.3173828-0.145505-0.3818359-0.3076105l-1-2.499939   c-0.0771484-0.192378-0.0273438-0.4130764,0.125-0.5536976c0.1533203-0.1401329,0.375-0.1723595,0.5625-0.0790997l2,0.9999762   c0.0478516,0.0239248,0.0917969,0.0556622,0.1298828,0.0937471l2,1.9999514   C11.0068359,15.8004913,11.0439453,16.0358372,10.9443359,16.2291927z M17.9638672,13.1858091l-1,2.499939   c-0.0644531,0.1621056-0.2089844,0.2788019-0.3818359,0.3076105l-3,0.4999866   C13.5546875,16.4977398,13.5273438,16.5001812,13.5,16.5001812c-0.1855469,0-0.3574219-0.1025352-0.4443359-0.2709885   c-0.0996094-0.1933556-0.0625-0.4287014,0.0908203-0.5825062l2-1.9999514   c0.0380859-0.038085,0.0820313-0.0698223,0.1298828-0.0937471l2-0.9999762   c0.1865234-0.0932598,0.4082031-0.0610332,0.5625,0.0790997C17.9912109,12.7727327,18.0410156,12.9934311,17.9638672,13.1858091z" fill="#303C42"/></g><g/><g/><g/><g/><g/><g/><g/><g/><g/><g/><g/><g/><g/><g/><g/></svg>